<svg width="163" height="43" viewBox="0 0 163 43" fill="none" xmlns="http://www.w3.org/2000/svg">
<path style="fill:#191919" d="M55.188 11.3789C55.5451 11.3789 55.8352 11.4979 56.0583 11.7359C56.2815 11.9739 56.3931 12.2715 56.3931 12.6285V25.6387C56.3931 26.0255 56.2592 26.3528 55.9914 26.6206C55.7385 26.8735 55.4186 27 55.0318 27C54.8384 27 54.6375 26.9702 54.4293 26.9107C54.2359 26.8363 54.0871 26.7396 53.9829 26.6206L45.2128 15.485L45.793 15.1279V25.7503C45.793 26.1074 45.674 26.4049 45.4359 26.6429C45.2128 26.881 44.9152 27 44.5433 27C44.1862 27 43.8961 26.881 43.673 26.6429C43.4498 26.4049 43.3382 26.1074 43.3382 25.7503V12.7401C43.3382 12.3533 43.4647 12.0335 43.7176 11.7805C43.9854 11.5128 44.3127 11.3789 44.6995 11.3789C44.9078 11.3789 45.1235 11.4235 45.3467 11.5128C45.5698 11.5871 45.7335 11.7062 45.8376 11.8698L54.34 22.7153L53.9606 22.9831V12.6285C53.9606 12.2715 54.0722 11.9739 54.2954 11.7359C54.5185 11.4979 54.8161 11.3789 55.188 11.3789ZM71.1071 21.0416C71.1071 22.2616 70.8319 23.3402 70.2814 24.2775C69.7458 25.1998 69.0168 25.9214 68.0944 26.4421C67.1869 26.9628 66.1678 27.2232 65.0372 27.2232C63.9065 27.2232 62.88 26.9628 61.9576 26.4421C61.0501 25.9214 60.3211 25.1998 59.7706 24.2775C59.235 23.3402 58.9672 22.2616 58.9672 21.0416C58.9672 19.8217 59.235 18.7505 59.7706 17.8282C60.3211 16.8909 61.0501 16.1619 61.9576 15.6412C62.88 15.1056 63.9065 14.8378 65.0372 14.8378C66.1678 14.8378 67.1869 15.1056 68.0944 15.6412C69.0168 16.1619 69.7458 16.8909 70.2814 17.8282C70.8319 18.7505 71.1071 19.8217 71.1071 21.0416ZM68.4292 21.0416C68.4292 20.2829 68.273 19.6283 67.9605 19.0778C67.663 18.5125 67.2539 18.0736 66.7332 17.7612C66.2273 17.4488 65.662 17.2926 65.0372 17.2926C64.4123 17.2926 63.8395 17.4488 63.3188 17.7612C62.813 18.0736 62.4039 18.5125 62.0915 19.0778C61.7939 19.6283 61.6451 20.2829 61.6451 21.0416C61.6451 21.7855 61.7939 22.4401 62.0915 23.0055C62.4039 23.5559 62.813 23.9874 63.3188 24.2998C63.8395 24.6122 64.4123 24.7684 65.0372 24.7684C65.662 24.7684 66.2273 24.6122 66.7332 24.2998C67.2539 23.9874 67.663 23.5559 67.9605 23.0055C68.273 22.4401 68.4292 21.7855 68.4292 21.0416ZM86.9134 11.3789C88.3416 11.3789 89.4053 11.7136 90.1046 12.3831C90.8038 13.0525 91.1534 14.0419 91.1534 15.3511C91.1534 16.0503 90.9823 16.6677 90.6401 17.2033C90.298 17.724 89.7921 18.1331 89.1227 18.4307C88.4532 18.7134 87.6275 18.8547 86.6456 18.8547L86.7349 17.8505C87.1961 17.8505 87.7242 17.9174 88.3193 18.0513C88.9144 18.1703 89.4872 18.3935 90.0376 18.7208C90.603 19.0332 91.0642 19.4795 91.4212 20.0597C91.7931 20.6251 91.9791 21.3541 91.9791 22.2467C91.9791 23.2286 91.8155 24.032 91.4882 24.6568C91.1757 25.2817 90.7592 25.7652 90.2385 26.1074C89.7178 26.4495 89.1599 26.6876 88.5648 26.8215C87.9697 26.9405 87.3969 27 86.8464 27H81.2898C80.903 27 80.5757 26.8735 80.3079 26.6206C80.055 26.3528 79.9285 26.0255 79.9285 25.6387V12.7401C79.9285 12.3533 80.055 12.0335 80.3079 11.7805C80.5757 11.5128 80.903 11.3789 81.2898 11.3789H86.9134ZM86.5117 14.0121H82.5395L82.8296 13.6551V17.6943L82.5618 17.4934H86.5787C87.0101 17.4934 87.3969 17.3521 87.7391 17.0694C88.0813 16.7867 88.2523 16.3776 88.2523 15.842C88.2523 15.2023 88.0887 14.7411 87.7614 14.4585C87.449 14.1609 87.0324 14.0121 86.5117 14.0121ZM86.6902 20.1267H82.6287L82.8296 19.9482V24.6568L82.6064 24.4337H86.8464C87.5308 24.4337 88.0738 24.2551 88.4755 23.8981C88.8772 23.5262 89.078 22.9757 89.078 22.2467C89.078 21.5772 88.9441 21.0937 88.6763 20.7962C88.4086 20.4986 88.0887 20.3127 87.7168 20.2383C87.3448 20.1639 87.0027 20.1267 86.6902 20.1267ZM103.188 15.061C103.575 15.061 103.894 15.1949 104.147 15.4627C104.4 15.7156 104.527 16.0354 104.527 16.4223V22.0905C104.527 23.6675 104.088 24.9172 103.21 25.8396C102.332 26.762 101.068 27.2232 99.4164 27.2232C97.765 27.2232 96.5005 26.762 95.6227 25.8396C94.7598 24.9172 94.3284 23.6675 94.3284 22.0905V16.4223C94.3284 16.0354 94.4548 15.7156 94.7077 15.4627C94.9607 15.1949 95.2805 15.061 95.6673 15.061C96.0541 15.061 96.374 15.1949 96.6269 15.4627C96.8798 15.7156 97.0063 16.0354 97.0063 16.4223V22.0905C97.0063 22.998 97.2071 23.6749 97.6088 24.1212C98.0105 24.5527 98.613 24.7684 99.4164 24.7684C100.235 24.7684 100.845 24.5527 101.246 24.1212C101.648 23.6749 101.849 22.998 101.849 22.0905V16.4223C101.849 16.0354 101.975 15.7156 102.228 15.4627C102.481 15.1949 102.801 15.061 103.188 15.061ZM110.327 25.6387C110.327 26.0255 110.193 26.3528 109.925 26.6206C109.672 26.8735 109.353 27 108.966 27C108.594 27 108.281 26.8735 108.028 26.6206C107.776 26.3528 107.649 26.0255 107.649 25.6387V11.8475C107.649 11.4607 107.776 11.1408 108.028 10.8879C108.296 10.6201 108.624 10.4862 109.01 10.4862C109.397 10.4862 109.71 10.6201 109.948 10.8879C110.201 11.1408 110.327 11.4607 110.327 11.8475V25.6387ZM116.342 25.6387C116.342 26.0255 116.208 26.3528 115.94 26.6206C115.687 26.8735 115.367 27 114.981 27C114.609 27 114.296 26.8735 114.043 26.6206C113.79 26.3528 113.664 26.0255 113.664 25.6387V11.8475C113.664 11.4607 113.79 11.1408 114.043 10.8879C114.311 10.6201 114.638 10.4862 115.025 10.4862C115.412 10.4862 115.724 10.6201 115.962 10.8879C116.215 11.1408 116.342 11.4607 116.342 11.8475V25.6387ZM118.764 25.1478C118.615 24.9395 118.548 24.6717 118.563 24.3444C118.578 24.0171 118.771 23.7344 119.143 23.4964C119.381 23.3476 119.634 23.2881 119.902 23.3179C120.17 23.3328 120.43 23.4666 120.683 23.7196C121.114 24.151 121.568 24.4857 122.044 24.7238C122.52 24.9618 123.115 25.0808 123.829 25.0808C124.053 25.066 124.298 25.0362 124.566 24.9916C124.834 24.9321 125.064 24.813 125.258 24.6345C125.466 24.4411 125.57 24.151 125.57 23.7642C125.57 23.4369 125.459 23.1765 125.235 22.9831C125.012 22.7897 124.715 22.6261 124.343 22.4922C123.986 22.3583 123.584 22.2318 123.138 22.1128C122.677 21.9789 122.2 21.8301 121.709 21.6665C121.233 21.5028 120.795 21.2946 120.393 21.0416C119.991 20.7739 119.664 20.4242 119.411 19.9928C119.158 19.5614 119.032 19.0183 119.032 18.3637C119.032 17.6199 119.24 16.9876 119.656 16.4669C120.073 15.9462 120.609 15.5445 121.263 15.2618C121.933 14.9792 122.632 14.8378 123.361 14.8378C123.822 14.8378 124.306 14.8973 124.811 15.0164C125.317 15.1205 125.801 15.299 126.262 15.5519C126.723 15.79 127.11 16.1098 127.422 16.5115C127.586 16.7347 127.683 17.0025 127.712 17.3149C127.742 17.6273 127.601 17.91 127.288 18.1629C127.065 18.3414 126.805 18.4232 126.507 18.4084C126.21 18.3786 125.964 18.2745 125.771 18.0959C125.518 17.7686 125.176 17.5083 124.744 17.3149C124.328 17.1215 123.844 17.0248 123.294 17.0248C123.071 17.0248 122.825 17.0545 122.557 17.114C122.305 17.1587 122.081 17.2703 121.888 17.4488C121.695 17.6124 121.598 17.8802 121.598 18.2522C121.598 18.5943 121.709 18.8696 121.933 19.0778C122.156 19.2713 122.453 19.4349 122.825 19.5688C123.212 19.6878 123.621 19.8068 124.053 19.9259C124.499 20.0449 124.953 20.1862 125.414 20.3499C125.875 20.5135 126.299 20.7292 126.686 20.997C127.073 21.2648 127.385 21.6144 127.623 22.0459C127.861 22.4624 127.98 22.998 127.98 23.6526C127.98 24.4114 127.757 25.0585 127.311 25.5941C126.864 26.1297 126.307 26.5388 125.637 26.8215C124.968 27.0893 124.283 27.2232 123.584 27.2232C122.706 27.2232 121.829 27.0744 120.951 26.7768C120.073 26.4644 119.344 25.9214 118.764 25.1478ZM136.492 14.8378C137.563 14.8378 138.374 15.0684 138.924 15.5296C139.49 15.9908 139.877 16.6082 140.085 17.3818C140.293 18.1406 140.397 18.9886 140.397 19.9259V25.6387C140.397 26.0255 140.271 26.3528 140.018 26.6206C139.765 26.8735 139.445 27 139.058 27C138.672 27 138.352 26.8735 138.099 26.6206C137.846 26.3528 137.719 26.0255 137.719 25.6387V19.9259C137.719 19.4349 137.66 18.996 137.541 18.6092C137.422 18.2075 137.206 17.8877 136.894 17.6496C136.581 17.4116 136.135 17.2926 135.555 17.2926C134.989 17.2926 134.506 17.4116 134.104 17.6496C133.703 17.8877 133.398 18.2075 133.189 18.6092C132.996 18.996 132.899 19.4349 132.899 19.9259V25.6387C132.899 26.0255 132.773 26.3528 132.52 26.6206C132.267 26.8735 131.947 27 131.56 27C131.173 27 130.854 26.8735 130.601 26.6206C130.348 26.3528 130.221 26.0255 130.221 25.6387V11.8475C130.221 11.4607 130.348 11.1408 130.601 10.8879C130.854 10.6201 131.173 10.4862 131.56 10.4862C131.947 10.4862 132.267 10.6201 132.52 10.8879C132.773 11.1408 132.899 11.4607 132.899 11.8475V17.3818L132.564 17.3149C132.698 17.062 132.884 16.7942 133.122 16.5115C133.36 16.214 133.65 15.9387 133.993 15.6858C134.335 15.4329 134.714 15.2321 135.131 15.0833C135.547 14.9196 136.001 14.8378 136.492 14.8378ZM145.819 25.6387C145.819 26.0255 145.692 26.3528 145.439 26.6206C145.186 26.8735 144.867 27 144.48 27C144.093 27 143.773 26.8735 143.52 26.6206C143.267 26.3528 143.141 26.0255 143.141 25.6387V16.4223C143.141 16.0354 143.267 15.7156 143.52 15.4627C143.773 15.1949 144.093 15.061 144.48 15.061C144.867 15.061 145.186 15.1949 145.439 15.4627C145.692 15.7156 145.819 16.0354 145.819 16.4223V25.6387ZM144.457 13.6104C143.952 13.6104 143.595 13.5286 143.386 13.365C143.178 13.2013 143.074 12.9112 143.074 12.4947V12.0706C143.074 11.6392 143.185 11.3491 143.409 11.2003C143.647 11.0367 144.004 10.9549 144.48 10.9549C145 10.9549 145.365 11.0367 145.573 11.2003C145.782 11.364 145.886 11.6541 145.886 12.0706V12.4947C145.886 12.9261 145.774 13.2236 145.551 13.3873C145.328 13.5361 144.963 13.6104 144.457 13.6104ZM148.705 15.2841H153.994C154.351 15.2841 154.648 15.4032 154.886 15.6412C155.124 15.8792 155.243 16.1768 155.243 16.5338C155.243 16.876 155.124 17.1661 154.886 17.4042C154.648 17.6273 154.351 17.7389 153.994 17.7389H148.705C148.348 17.7389 148.05 17.6199 147.812 17.3818C147.574 17.1438 147.455 16.8463 147.455 16.4892C147.455 16.147 147.574 15.8644 147.812 15.6412C148.05 15.4032 148.348 15.2841 148.705 15.2841ZM151.093 12.4947C151.479 12.4947 151.792 12.6285 152.03 12.8963C152.283 13.1493 152.409 13.4691 152.409 13.8559V23.7865C152.409 23.9948 152.446 24.1659 152.521 24.2998C152.61 24.4337 152.722 24.5304 152.856 24.5899C153.004 24.6494 153.161 24.6791 153.324 24.6791C153.503 24.6791 153.666 24.6494 153.815 24.5899C153.964 24.5155 154.135 24.4783 154.328 24.4783C154.537 24.4783 154.723 24.575 154.886 24.7684C155.065 24.9618 155.154 25.2296 155.154 25.5718C155.154 25.9883 154.923 26.3305 154.462 26.5983C154.016 26.8661 153.532 27 153.012 27C152.699 27 152.35 26.9777 151.963 26.9331C151.591 26.8735 151.234 26.7471 150.892 26.5537C150.564 26.3454 150.289 26.033 150.066 25.6164C149.843 25.1998 149.731 24.6271 149.731 23.8981V13.8559C149.731 13.4691 149.858 13.1493 150.111 12.8963C150.378 12.6285 150.706 12.4947 151.093 12.4947ZM158.885 26.9777C158.453 26.9777 158.119 26.8661 157.881 26.6429C157.657 26.4049 157.546 26.0702 157.546 25.6387V25.2594C157.546 24.8279 157.657 24.5006 157.881 24.2775C158.119 24.0394 158.453 23.9204 158.885 23.9204H159.175C159.606 23.9204 159.934 24.0394 160.157 24.2775C160.395 24.5006 160.514 24.8279 160.514 25.2594V25.6387C160.514 26.0702 160.395 26.4049 160.157 26.6429C159.934 26.8661 159.606 26.9777 159.175 26.9777H158.885Z" fill="#EDBB59"/>
<path style="fill:#191919" d="M34.4831 34.507V33.7255H39.9389V34.507H37.6514V41H36.7706V34.507H34.4831ZM44.4992 41V33.7255H48.8895V34.507H45.3801V36.9649H48.6621V37.7464H45.3801V40.2186H48.9463V41H44.4992ZM59.5316 35.9988H58.6508C58.5987 35.7454 58.5075 35.5228 58.3773 35.331C58.2494 35.1392 58.0931 34.9782 57.9084 34.848C57.7261 34.7154 57.5236 34.6159 57.301 34.5496C57.0784 34.4833 56.8463 34.4501 56.6048 34.4501C56.1644 34.4501 55.7654 34.5614 55.4078 34.784C55.0526 35.0066 54.7696 35.3346 54.5589 35.7679C54.3505 36.2013 54.2463 36.7329 54.2463 37.3628C54.2463 37.9927 54.3505 38.5243 54.5589 38.9576C54.7696 39.3909 55.0526 39.7189 55.4078 39.9415C55.7654 40.1641 56.1644 40.2754 56.6048 40.2754C56.8463 40.2754 57.0784 40.2422 57.301 40.1759C57.5236 40.1096 57.7261 40.0114 57.9084 39.8811C58.0931 39.7485 58.2494 39.5863 58.3773 39.3945C58.5075 39.2003 58.5987 38.9777 58.6508 38.7267H59.5316C59.4653 39.0985 59.3446 39.4312 59.1693 39.7248C58.9941 40.0185 58.7763 40.2683 58.5158 40.4743C58.2553 40.678 57.9629 40.8331 57.6384 40.9396C57.3164 41.0462 56.9719 41.0995 56.6048 41.0995C55.9844 41.0995 55.4327 40.9479 54.9496 40.6448C54.4665 40.3417 54.0865 39.9107 53.8094 39.3519C53.5323 38.793 53.3938 38.13 53.3938 37.3628C53.3938 36.5955 53.5323 35.9325 53.8094 35.3737C54.0865 34.8148 54.4665 34.3838 54.9496 34.0807C55.4327 33.7776 55.9844 33.6261 56.6048 33.6261C56.9719 33.6261 57.3164 33.6794 57.6384 33.7859C57.9629 33.8925 58.2553 34.0488 58.5158 34.2548C58.7763 34.4584 58.9941 34.7071 59.1693 35.0007C59.3446 35.292 59.4653 35.6247 59.5316 35.9988ZM64.1559 41V33.7255H65.0368V36.9649H68.9155V33.7255H69.7964V41H68.9155V37.7464H65.0368V41H64.1559ZM80.7747 41V33.7255H85.165V34.507H81.6556V36.9649H84.9376V37.7464H81.6556V40.2186H85.2218V41H80.7747ZM95.7219 33.7255V41H94.8694L90.9054 35.2884H90.8344V41H89.9535V33.7255H90.8059L94.7842 39.4513H94.8552V33.7255H95.7219ZM105.658 35.9988C105.58 35.7596 105.477 35.5453 105.349 35.3559C105.224 35.1641 105.073 35.0007 104.898 34.8657C104.725 34.7307 104.529 34.6277 104.308 34.5567C104.088 34.4857 103.847 34.4501 103.584 34.4501C103.153 34.4501 102.761 34.5614 102.408 34.784C102.055 35.0066 101.775 35.3346 101.566 35.7679C101.358 36.2013 101.254 36.7329 101.254 37.3628C101.254 37.9927 101.359 38.5243 101.57 38.9576C101.781 39.3909 102.066 39.7189 102.426 39.9415C102.786 40.1641 103.191 40.2754 103.641 40.2754C104.057 40.2754 104.424 40.1866 104.742 40.009C105.061 39.829 105.31 39.5757 105.488 39.2489C105.668 38.9197 105.758 38.5326 105.758 38.0874L106.028 38.1442H103.839V37.3628H106.61V38.1442C106.61 38.7433 106.482 39.2643 106.226 39.7071C105.973 40.1499 105.623 40.4932 105.175 40.7372C104.73 40.9787 104.218 41.0995 103.641 41.0995C102.996 41.0995 102.431 40.9479 101.943 40.6448C101.457 40.3417 101.078 39.9107 100.806 39.3519C100.536 38.793 100.401 38.13 100.401 37.3628C100.401 36.7873 100.478 36.2699 100.632 35.8105C100.788 35.3488 101.009 34.9557 101.293 34.6313C101.577 34.3069 101.913 34.0582 102.301 33.8854C102.69 33.7125 103.117 33.6261 103.584 33.6261C103.967 33.6261 104.325 33.6841 104.656 33.8001C104.99 33.9138 105.288 34.076 105.548 34.2867C105.811 34.4951 106.03 34.7449 106.205 35.0362C106.38 35.3251 106.501 35.646 106.567 35.9988H105.658ZM112.2 33.7255V41H111.32V33.7255H112.2ZM122.936 33.7255V41H122.083L118.119 35.2884H118.048V41H117.167V33.7255H118.02L121.998 39.4513H122.069V33.7255H122.936ZM127.899 41V33.7255H132.29V34.507H128.78V36.9649H132.062V37.7464H128.78V40.2186H132.346V41H127.899ZM137.078 41V33.7255H141.468V34.507H137.959V36.9649H141.241V37.7464H137.959V40.2186H141.525V41H137.078ZM146.257 41V33.7255H148.715C149.283 33.7255 149.75 33.8226 150.114 34.0168C150.479 34.2086 150.749 34.4726 150.924 34.8089C151.099 35.1451 151.187 35.5276 151.187 35.9562C151.187 36.3848 151.099 36.7648 150.924 37.0964C150.749 37.4279 150.48 37.6884 150.118 37.8778C149.756 38.0649 149.293 38.1584 148.729 38.1584H146.74V37.3628H148.701C149.089 37.3628 149.401 37.3059 149.638 37.1923C149.877 37.0786 150.05 36.9176 150.157 36.7092C150.266 36.4984 150.32 36.2474 150.32 35.9562C150.32 35.6649 150.266 35.4104 150.157 35.1925C150.048 34.9746 149.874 34.8065 149.635 34.6881C149.396 34.5674 149.079 34.507 148.686 34.507H147.138V41H146.257ZM149.681 37.7322L151.471 41H150.448L148.686 37.7322H149.681ZM159.834 35.5441C159.791 35.1842 159.618 34.9048 159.315 34.7059C159.012 34.507 158.64 34.4075 158.2 34.4075C157.878 34.4075 157.596 34.4596 157.355 34.5638C157.115 34.668 156.928 34.8113 156.793 34.9936C156.661 35.1759 156.594 35.3831 156.594 35.6152C156.594 35.8094 156.641 35.9763 156.733 36.116C156.828 36.2534 156.948 36.3682 157.095 36.4606C157.242 36.5505 157.396 36.6251 157.557 36.6843C157.718 36.7412 157.866 36.7873 158.001 36.8229L158.74 37.0218C158.929 37.0715 159.14 37.1402 159.372 37.2278C159.606 37.3154 159.83 37.435 160.043 37.5865C160.259 37.7357 160.436 37.9275 160.576 38.162C160.716 38.3964 160.786 38.6841 160.786 39.0251C160.786 39.4182 160.683 39.7734 160.477 40.0907C160.273 40.408 159.975 40.6602 159.582 40.8473C159.191 41.0343 158.716 41.1279 158.157 41.1279C157.636 41.1279 157.185 41.0438 156.804 40.8757C156.425 40.7076 156.127 40.4731 155.909 40.1724C155.693 39.8717 155.571 39.5224 155.543 39.1246H156.452C156.476 39.3992 156.568 39.6266 156.729 39.8065C156.893 39.9841 157.099 40.1167 157.347 40.2044C157.598 40.2896 157.868 40.3322 158.157 40.3322C158.494 40.3322 158.795 40.2778 159.063 40.1688C159.331 40.0575 159.543 39.9036 159.699 39.7071C159.855 39.5082 159.933 39.2761 159.933 39.0109C159.933 38.7694 159.866 38.5728 159.731 38.4213C159.596 38.2697 159.418 38.1466 159.198 38.0519C158.978 37.9571 158.74 37.8743 158.484 37.8032L157.589 37.5475C157.021 37.3841 156.571 37.1508 156.239 36.8477C155.908 36.5446 155.742 36.148 155.742 35.6578C155.742 35.2505 155.852 34.8953 156.072 34.5922C156.295 34.2867 156.593 34.0499 156.967 33.8818C157.344 33.7113 157.764 33.6261 158.228 33.6261C158.697 33.6261 159.114 33.7101 159.479 33.8783C159.843 34.044 160.132 34.2714 160.345 34.5602C160.561 34.8491 160.674 35.1771 160.686 35.5441H159.834Z" fill="#EDBB59"/>
<path d="M19 34C19 33.5 19.5 33.5 19.5 33.5C19.5 33.5 21.1973 33.1792 22 32.5C23 31.6539 23.5 29.5 23.5 29.5C23.5 29.5 23.5 29 24 29C24.5 29 24.5 29.5 24.5 29.5C24.5 29.5 24.6268 31.6268 25.5 32.5C26.3733 33.3732 28.5 33.5 28.5 33.5C28.5 33.5 29 33.5 29 34C29 34.5 28.5 34.5 28.5 34.5C28.5 34.5 26.3733 34.6268 25.5 35.5C24.6268 36.3732 24.5 38.5 24.5 38.5C24.5 38.5 24.5 39 24 39C23.5 39 23.5 38.5 23.5 38.5C23.5 38.5 23.3733 36.3732 22.5 35.5C21.6268 34.6268 19.5 34.5 19.5 34.5C19.5 34.5 19 34.5 19 34Z" fill="#EDBB59"/>
<path d="M30.4327 29.2235C30.2287 29.4345 29.9393 29.1013 30.1029 28.8576C30.9249 27.6325 31.4526 26.1854 31.5764 24.6099C31.9604 19.7198 28.3076 15.4444 23.4175 15.0603C21.1528 14.8825 19.0199 15.5705 17.3444 16.8462C17.111 17.0239 16.7634 16.7559 16.9619 16.54C18.8194 14.5196 21.5532 13.3424 24.5014 13.574C29.5952 13.974 33.4002 18.4276 33.0002 23.5214C32.8252 25.7503 31.874 27.7324 30.4327 29.2235Z" fill="#EDBB59"/>
<path d="M30.7664 7.68544C31.009 7.89661 30.721 8.26152 30.4323 8.11986C26.8564 6.36518 22.591 6.03707 18.5714 7.55737L18.0964 7.73704C10.3841 10.6539 6.49674 19.2705 9.41363 26.9828C10.39 29.5643 12.0051 31.7174 14.0111 33.33C14.2619 33.5317 14.0529 33.9487 13.7586 33.8185C10.0831 32.1931 7.03559 29.1527 5.50154 25.0967C2.46311 17.0632 6.51247 8.08754 14.546 5.04911L15.0408 4.86197C20.5886 2.7637 26.5857 4.04556 30.7664 7.68544Z" fill="#EDBB59"/>
</svg>
